<?xml version="1.0" encoding="utf-8"?>
<!-- Generator: Adobe Illustrator 24.0.2, SVG Export Plug-In . SVG Version: 6.00 Build 0)  -->
<svg version="1.1" id="Слой_1" xmlns="http://www.w3.org/2000/svg" xmlns:xlink="http://www.w3.org/1999/xlink" x="0px" y="0px"
	 viewBox="0 0 765.3 211" style="enable-background:new 0 0 765.3 211;" xml:space="preserve">
<style type="text/css">
	.st0{fill:#8D81AC;}
	.st1{font-family:'LucidaSansUnicode';}
	.st2{font-size:100px;}
</style>
<g>
	<g>
		<path class="st0" d="M159.7,107.8c0.1-2.1-0.7-3.9-2-5.3L138.2,83l0.2-44.7c-0.1-0.3-0.2-0.8-0.3-1.2c0-0.1,0-0.3-0.1-0.4
			c-0.1-0.2-0.2-0.5-0.2-0.7c-0.1-0.3-0.1-0.5-0.2-0.8c-0.1-0.1-0.2-0.3-0.2-0.4c-0.1-0.3-0.3-0.5-0.4-0.8l-0.2-0.3
			c-0.2-0.3-0.4-0.5-0.6-0.7c-0.1-0.1-0.2-0.2-0.3-0.3c-0.3-0.2-0.5-0.5-0.8-0.7c-0.2-0.1-0.3-0.2-0.5-0.3l-0.3-0.1
			c-0.1-0.1-0.3-0.2-0.5-0.3c-0.6-0.3-1.4-0.4-2.2-0.5h-0.4h-16.1c-1.8,0-3.5,0.7-4.8,2c-1.3,1.3-2,3-2,4.8c0,3.7,3.1,6.8,6.8,6.8
			h9.3v41.1c0,0.6,0,1.2,0.1,1.7c0.3,2.1,1.5,3.8,3.1,4.9l0.8,0.6l14.9,14.9l-16.6,16.6c-0.8,0.7-1.4,1.6-1.8,2.5
			c-0.2,0.4-0.2,0.7-0.3,1.1l-0.1,0.3c-0.1,0.5-0.1,1.2-0.1,1.8v41.7h-9.3c-3.8,0-6.8,2.9-6.8,6.6c0,1.8,0.7,3.5,2,4.7
			c1.3,1.3,3,2,4.8,2l16.2-0.1c0.9,0,1.7-0.2,2.5-0.5l0.9-0.5c0.1-0.1,0.3-0.1,0.4-0.2c0.2-0.2,0.5-0.4,0.8-0.7l0.3-0.3
			c0.2-0.2,0.4-0.5,0.6-0.8l0.2-0.2c0.2-0.3,0.3-0.6,0.4-0.8l0.1-0.3c0.1-0.2,0.1-0.5,0.2-0.7c0-0.2,0.1-0.4,0.2-0.6
			c0.1-0.2,0.1-0.5,0.2-0.7c0-0.1,0,0,0,0.1c0-0.5,0.2-0.9,0.3-1.3l-0.2-45.1l19.3-19.5C159,111.5,159.7,109.8,159.7,107.8z
			 M82.8,171.6h-9.3V130c0-0.6,0-1.3-0.1-1.8l-0.1-0.3c-0.1-0.3-0.2-0.7-0.3-1.1c-0.4-0.9-1-1.8-1.8-2.5l-16.6-16.6l14.9-14.9
			l0.8-0.6c1.6-1,2.7-2.7,3.1-4.9c0.1-0.5,0.1-1.1,0.1-1.8V44.4h9.3c3.8,0,6.8-3,6.8-6.8c0-1.8-0.7-3.5-2-4.8s-3-2-4.8-2H66.7h-0.4
			c-0.8,0-1.6,0.2-2.2,0.5c-0.2,0.1-0.4,0.2-0.5,0.3l-0.3,0c-0.2,0.1-0.3,0.2-0.5,0.3c-0.3,0.2-0.6,0.4-0.8,0.7
			c-0.1,0.1-0.2,0.2-0.3,0.3c-0.2,0.2-0.4,0.5-0.6,0.7l-0.2,0.3c-0.1,0.2-0.3,0.5-0.4,0.8c-0.2,0.1-0.2,0.3-0.3,0.4
			c-0.1,0.2-0.2,0.5-0.2,0.8c-0.1,0.2-0.1,0.5-0.2,0.7c0,0.1-0.1,0.3-0.1,0.4c0,0.5-0.1,0.9-0.3,1.2l0.2,44.7l-19.3,19.6
			c-1.4,1.4-2.1,3.1-2,5.3c0,1.9,0.6,3.7,1.9,5l19.3,19.5l-0.1,45c0.1,0.3,0.2,0.8,0.3,1.3c0-0.1,0-0.2,0-0.1
			c0.1,0.2,0.1,0.5,0.2,0.7c0.1,0.2,0.1,0.4,0.2,0.6c0.1,0.2,0.1,0.5,0.2,0.7l0.1,0.3c0.1,0.3,0.3,0.6,0.4,0.8l0.2,0.2
			c0.2,0.3,0.4,0.6,0.6,0.8l0.3,0.3c0.3,0.3,0.6,0.5,0.8,0.7c0.1,0.1,0.3,0.2,0.4,0.2l0.9,0.5c0.8,0.3,1.7,0.5,2.5,0.5l16.2,0.1
			c1.8,0,3.6-0.7,4.8-2c1.3-1.3,2-2.9,2-4.7C89.7,174.6,86.7,171.6,82.8,171.6z"/>
	</g>
</g>
<text transform="matrix(1 0 0 1 202.3973 137.7946)"><tspan x="0" y="0" class="st0 st1 st2">Ап</tspan><tspan x="131.6" y="0" class="st1 st2">дейт</tspan></text>
</svg>
